# xmcd CD database file
#
# Track frame offsets:
#	150
#	25121
#	41069
#	66362
#	85940
#	104953
#	124202
#	143724
#	163608
#	176920
#	189655
#	192134
#	209432
#	227564
#	232232
#
# Disc length: 3324 seconds
#
# Revision: 2
# Processed by: cddbd v1.5.1PL0 Copyright (c) Steve Scherf et al.
# Submitted via: CDex 1.60beta1
#
DISCID=e10cfa0f
DTITLE=Ногу Свело - Идем на Восток!
DYEAR=2005
DGENRE=Rock
TTITLE0=Эй, мутант
TTITLE1=Идем на Восток
TTITLE2=Я - не последний герой! (2005)
TTITLE3=Твоя звезда
TTITLE4=Черная - Рыжая
TTITLE5=Вся раздета
TTITLE6=Мясо в зубах
TTITLE7=Апрель
TTITLE8=Мадам
TTITLE9=Клавесин
TTITLE10=Шах!
TTITLE11=Горная лирическая
TTITLE12=Рекламное место сдается
TTITLE13=СССР
TTITLE14=Идем на восток! (dj Karas)
EXTD=YEAR: 2005
EXTT0=
EXTT1=
EXTT2=
EXTT3=
EXTT4=
EXTT5=
EXTT6=
EXTT7=
EXTT8=
EXTT9=
EXTT10=
EXTT11=
EXTT12=
EXTT13=
EXTT14=
PLAYORDER=
